<?xml version="1.0" ?><!DOCTYPE svg  PUBLIC '-//W3C//DTD SVG 1.0//EN'  'http://www.w3.org/TR/2001/REC-SVG-20010904/DTD/svg10.dtd'><svg enable-background="new 0 0 72 72" height="72px" id="Layer_1" version="1.0" viewBox="0 0 72 72" width="72px" xml:space="preserve" xmlns="http://www.w3.org/2000/svg" xmlns:xlink="http://www.w3.org/1999/xlink"><g><path d="M36.564,16.646c-11.649,0-21.096,9.444-21.096,21.097c0,11.649,9.445,21.096,21.096,21.096   c11.651,0,21.098-9.445,21.098-21.096C57.661,26.091,48.215,16.646,36.564,16.646" fill="#008245"/><path d="M38.135,51.837h-2.729v-5.051c-4.506,0.07-9.018,1.316-13.188-1.029c3.671-2.408,8.129-8.902,8.129-8.902   s-3.724-0.446-4.771-1.236c3.772-1.465,7.188-7.084,7.188-7.084l-3.043-0.059l7.006-8.75c0,0,4.109,6.261,7.006,8.719   c-1.055,0.386-3.011,0.104-3.011,0.104s3.302,5.513,7.174,7.064c-1.362,1.1-4.859,1.136-4.859,1.136s4.542,6.575,8.229,9.012   c-4.167,2.35-8.671,1.102-13.129,1.025v5.052H38.135z" fill="#FFFFFF"/></g></svg>