<?xml version="1.0" encoding="utf-8"?>
<!-- Generator: Adobe Illustrator 23.1.0, SVG Export Plug-In . SVG Version: 6.00 Build 0)  -->
<svg version="1.1" xmlns="http://www.w3.org/2000/svg" xmlns:xlink="http://www.w3.org/1999/xlink" x="0px" y="0px"
	 viewBox="0 0 595.3 841.9" enable-background="new 0 0 595.3 841.9" xml:space="preserve">
<g id="Capa_1">
	<g>
		<polygon fill="#E09B52" stroke="#7C6B59" stroke-width="5.9353" stroke-linejoin="round" stroke-miterlimit="10" points="
			287.5,820.2 401,820.2 447.8,578.4 287.5,578.4 127.3,578.4 174,820.2 		"/>
		<polyline fill="#E09B52" stroke="#7C6B59" stroke-width="5.9353" stroke-linejoin="round" stroke-miterlimit="10" points="
			287.5,578.4 477.8,578.4 477.8,500.4 287.5,500.4 97.2,500.4 97.2,578.4 287.5,578.4 		"/>
		<polygon fill="#B0733A" points="131.4,581.5 167.6,581.5 218.2,817.1 176.5,817.1 		"/>
		<polygon fill="#F7B980" points="445.3,581.4 434.7,581.4 387.4,816.9 398.5,816.9 		"/>
		<polygon fill="#B0733A" points="100.8,503.3 138.1,503.3 153.1,575.5 100.8,575.5 		"/>
		<polygon fill="#F7B980" points="474.2,503.3 459.7,503.3 445.3,575.5 474.2,575.5 		"/>
		<path fill="#799946" stroke="#7C6A59" stroke-width="5.9353" stroke-miterlimit="10" d="M255.3,500.5H131.5
			c0,0-38.4-105.8-12.4-163.4c0,0,22.4-70.4,93.5-64.4c0,0,30.1-0.6,60,29.7L255.3,500.5z"/>
		<path fill="#AECD61" stroke="#7C6A59" stroke-width="5.9353" stroke-miterlimit="10" d="M319.7,500.5h123.8
			c0,0,42.1-104,12.4-163.4c0,0-25.6-68.2-93.5-64.4c0,0-28.8-0.6-60,29.7L319.7,500.5z"/>
		<path fill="#97C456" stroke="#7C6A59" stroke-width="5.9353" stroke-linejoin="round" stroke-miterlimit="10" d="M287.5,500.5
			h64.4c0,0,34.7-143.6-22.3-212.9c0,0-17.3-24.8-42.1-24.8s-42.1,24.8-42.1,24.8c-56.9,69.3-22.3,212.9-22.3,212.9
			S287.5,500.5,287.5,500.5z"/>
		<polyline fill="none" stroke="#7C6B59" stroke-width="2.8293" stroke-linejoin="round" stroke-miterlimit="10" points="
			377.5,359.5 389.6,380.4 399.5,359.5 		"/>
		<polyline fill="none" stroke="#7C6B59" stroke-width="2.8293" stroke-linejoin="round" stroke-miterlimit="10" points="
			441.5,383.4 434.8,407 455.7,401.9 		"/>
		<polyline fill="none" stroke="#7C6B59" stroke-width="2.8293" stroke-linejoin="round" stroke-miterlimit="10" points="
			389.3,294.9 393.1,319.3 409.6,304.3 		"/>
		<polyline fill="none" stroke="#7C6B59" stroke-width="2.8293" stroke-linejoin="round" stroke-miterlimit="10" points="
			180.5,295.7 189.5,318.4 202.2,299.5 		"/>
		<polyline fill="none" stroke="#7C6B59" stroke-width="2.8293" stroke-linejoin="round" stroke-miterlimit="10" points="
			138.4,461.4 152.9,480.4 160.2,458.3 		"/>
		<polyline fill="none" stroke="#7C6B59" stroke-width="2.8293" stroke-linejoin="round" stroke-miterlimit="10" points="
			128.8,350.5 149.3,360.8 147.3,337.4 		"/>
		<polyline fill="none" stroke="#7C6B59" stroke-width="2.8293" stroke-linejoin="round" stroke-miterlimit="10" points="
			169.5,417.1 181.7,438 191.5,417.1 		"/>
		<polyline fill="none" stroke="#7C6B59" stroke-width="2.8293" stroke-linejoin="round" stroke-miterlimit="10" points="
			408.9,469.4 421,490.2 430.9,469.4 		"/>
		<polyline fill="none" stroke="#7C6B59" stroke-width="2.8293" stroke-linejoin="round" stroke-miterlimit="10" points="
			175.7,357.3 187.8,378.2 197.7,357.3 		"/>
		<polyline fill="none" stroke="#7C6B59" stroke-width="2.8293" stroke-linejoin="round" stroke-miterlimit="10" points="
			267.3,296.6 279.4,317.5 289.3,296.6 		"/>
		<polyline fill="none" stroke="#7C6B59" stroke-width="2.8293" stroke-linejoin="round" stroke-miterlimit="10" points="
			300.3,349.1 312.4,370 322.3,349.1 		"/>
		<polyline fill="none" stroke="#7C6B59" stroke-width="2.8293" stroke-linejoin="round" stroke-miterlimit="10" points="
			376.4,448.5 388.5,469.4 398.4,448.5 		"/>
		<polyline fill="none" stroke="#7C6B59" stroke-width="2.8293" stroke-linejoin="round" stroke-miterlimit="10" points="
			294.9,427.6 307.1,448.5 316.9,427.6 		"/>
		<polyline fill="none" stroke="#7C6B59" stroke-width="2.8293" stroke-linejoin="round" stroke-miterlimit="10" points="
			246.8,458.9 259,479.8 268.8,458.9 		"/>
		<polyline fill="none" stroke="#7C6B59" stroke-width="2.8293" stroke-linejoin="round" stroke-miterlimit="10" points="
			226.3,384.8 238.5,405.6 248.3,384.8 		"/>
		<path fill="#F8B46A" stroke="#7C6A59" stroke-width="1.6359" stroke-linejoin="round" stroke-miterlimit="10" d="M154,230
			c0-21.7,39.4-42.9,39.4-42.9c26,39.4,7.6,64,7.6,64c-10.4,17.3-39.6,31.5-39.6,31.5L154,230z"/>
		<path fill="#DD9341" stroke="#7C6A59" stroke-width="1.6359" stroke-linejoin="round" stroke-miterlimit="10" d="M133,234.9
			c-21.6-10.7-59.9,7.1-59.9,7.1c12.6,45.5,43.3,47.7,43.3,47.7c22.6,3.4,49.7-9.2,49.7-9.2L133,234.9z"/>
		<path fill="#F7AA4A" stroke="#7C6A59" stroke-width="1.6359" stroke-linejoin="round" stroke-miterlimit="10" d="M163.8,281.5
			c-25.1-4.7-42.4-27.9-42.4-27.9c-23.1-29.9,1.1-62.6,1.1-62.6s40.5,3.1,48,40.2C170.5,231.2,176.6,259.5,163.8,281.5"/>
	</g>
</g>
<g id="Capa_2">
</g>
</svg>
